<?xml version="1.0" standalone="no"?>
<!DOCTYPE svg PUBLIC "-//W3C//DTD SVG 20010904//EN"
 "http://www.w3.org/TR/2001/REC-SVG-20010904/DTD/svg10.dtd">
<svg version="1.0" xmlns="http://www.w3.org/2000/svg"
 width="512.000000pt" height="512.000000pt" viewBox="0 0 512.000000 512.000000"
 preserveAspectRatio="xMidYMid meet">
<metadata>
Created by potrace 1.14, written by Peter Selinger 2001-2017
</metadata>
<g transform="translate(0.000000,512.000000) scale(0.100000,-0.100000)"
fill="#000000" stroke="none">
<path d="M2369 5116 c-2 -2 -33 -6 -69 -10 -674 -64 -1306 -410 -1739 -951
-309 -386 -494 -835 -549 -1335 -9 -86 -8 -459 2 -535 4 -33 9 -73 11 -90 9
-64 47 -244 71 -327 151 -541 481 -1020 937 -1362 290 -217 648 -378 1002
-450 208 -43 287 -51 520 -51 164 0 237 4 365 20 14 1 63 10 110 20 47 9 99
19 115 22 52 9 252 72 348 109 437 171 840 479 1117 854 38 52 73 100 78 105
19 25 124 209 165 290 69 137 159 373 181 476 3 13 14 62 25 109 25 107 28
124 47 270 9 69 12 456 4 525 -16 129 -25 192 -34 230 -2 6 -6 28 -10 50 -33
175 -141 482 -224 635 -14 25 -41 74 -60 110 -127 233 -397 551 -602 710 -24
19 -53 43 -65 53 -84 75 -397 257 -560 326 -195 82 -453 153 -640 176 -27 4
-61 9 -75 12 -28 5 -466 14 -471 9z m481 -315 c262 -38 470 -101 695 -211 601
-292 1039 -829 1205 -1480 12 -47 24 -96 26 -110 3 -14 9 -50 14 -80 32 -181
34 -529 5 -695 -6 -34 -24 -128 -31 -165 -3 -14 -19 -72 -35 -129 -27 -93 -42
-134 -82 -236 -29 -73 -148 -297 -196 -370 -114 -172 -288 -368 -436 -492 -84
-70 -228 -173 -305 -217 -36 -20 -72 -41 -80 -46 -70 -46 -347 -155 -480 -190
-112 -30 -273 -59 -373 -69 -94 -9 -403 -7 -467 3 -19 3 -69 10 -110 16 -217
32 -471 117 -690 231 -288 151 -529 356 -753 639 -36 45 -87 121 -87 129 0 5
-4 11 -8 13 -12 5 -107 173 -151 270 -37 80 -110 266 -116 298 -2 8 -11 44
-20 80 -20 76 -25 98 -29 125 -2 11 -8 47 -14 80 -6 33 -14 78 -18 100 -3 22
-7 123 -9 225 -6 400 74 741 254 1085 58 111 129 227 144 233 4 2 7 8 7 14 0
33 279 341 394 433 27 22 55 46 62 53 8 7 69 50 136 96 207 139 434 243 672
306 122 33 125 33 196 45 25 4 54 9 65 11 11 2 54 7 95 10 41 4 77 8 79 10 8
7 372 -5 441 -15z"/>
<path d="M1324 3156 c-78 -21 -118 -70 -117 -146 1 -53 20 -90 65 -121 22 -16
53 -23 136 -30 59 -5 116 -11 127 -13 231 -50 402 -138 550 -283 68 -66 162
-182 173 -213 3 -8 10 -22 17 -30 20 -24 82 -180 99 -245 22 -86 25 -110 32
-205 7 -107 18 -141 53 -173 70 -62 168 -51 225 26 19 25 21 42 20 140 -2 409
-232 825 -588 1065 -202 136 -417 212 -646 228 -47 3 -89 7 -95 8 -5 2 -28 -2
-51 -8z"/>
<path d="M3738 3165 c-2 -1 -41 -5 -87 -9 -303 -23 -591 -154 -817 -368 l-86
-83 21 -38 c11 -20 31 -54 43 -74 11 -21 35 -71 53 -111 l32 -73 39 48 c132
162 292 276 479 343 105 37 162 48 303 59 79 6 109 12 130 28 49 36 68 85 63
161 0 12 -18 41 -38 62 -29 31 -49 42 -85 49 -26 4 -49 7 -50 6z"/>
</g>
</svg>
